<?xml version="1.0" encoding="UTF-8" standalone="no"?>
<!DOCTYPE svg PUBLIC "-//W3C//DTD SVG 1.1//EN" "http://www.w3.org/Graphics/SVG/1.1/DTD/svg11.dtd">
<svg width="100%" height="100%" viewBox="0 0 100 100" version="1.1" xmlns="http://www.w3.org/2000/svg" xmlns:xlink="http://www.w3.org/1999/xlink" xml:space="preserve" xmlns:serif="http://www.serif.com/" style="fill-rule:evenodd;clip-rule:evenodd;stroke-linejoin:round;stroke-miterlimit:1.41421;">
    <g transform="matrix(1,0,0,0.8,0,0)">
        <g transform="matrix(1,0,0,1.25,0,0)">
            <path d="M76.495,73.915L29.742,73.915L29.742,78.922C28.833,84.054 24.332,87.954 18.915,87.954C12.844,87.954 7.922,83.054 7.922,77.01C7.922,73.281 9.796,69.987 12.658,68.011L9.506,63.528C5.226,66.493 2.426,71.426 2.426,77.01C2.426,86.076 9.808,93.426 18.915,93.426C27.083,93.426 33.863,87.515 35.176,79.756L76.273,79.756C77.225,81.386 78.998,82.482 81.028,82.482C84.064,82.482 86.525,80.032 86.525,77.01C86.525,73.988 84.064,71.538 81.028,71.538C79.147,71.538 77.486,72.479 76.495,73.915Z"/>
        </g>
        <g transform="matrix(1,0,0,1.25,0,0)">
            <path d="M13.997,74.733C14.092,74.498 14.204,74.267 14.335,74.042C15.345,72.293 17.173,71.311 19.056,71.301L39.668,35.6C33.594,30.587 31.849,21.775 35.92,14.724C40.457,6.865 50.503,4.17 58.356,8.704C63.178,11.488 66.053,16.35 66.504,21.507L61.05,21.986C60.75,18.546 58.833,15.304 55.618,13.448C50.382,10.425 43.685,12.221 40.66,17.461C37.698,22.592 39.355,29.122 44.343,32.229L47.357,33.969L24.011,74.406C24.674,75.791 24.746,77.435 24.113,78.918C23.342,81.007 21.332,82.496 18.973,82.496C15.948,82.496 13.496,80.046 13.496,77.023C13.496,76.205 13.676,75.43 13.997,74.733Z"/>
        </g>
        <g transform="matrix(1,0,0,1.25,0,0)">
            <path d="M49.663,28.354L72.775,68.386L75.528,66.797L75.575,66.877C75.597,66.864 75.62,66.851 75.643,66.838C80.882,63.813 87.558,65.565 90.552,70.752C93.547,75.94 91.727,82.597 86.488,85.622C83.258,87.487 79.482,87.536 76.36,86.084L74.028,91.021C78.708,93.189 84.362,93.111 89.199,90.318C97.058,85.78 99.788,75.794 95.296,68.014C91.24,60.989 82.683,58.163 75.275,61.021L54.767,25.5C55.651,23.889 55.7,21.88 54.722,20.185C53.224,17.591 49.887,16.715 47.267,18.227C44.647,19.74 43.737,23.069 45.235,25.662C46.186,27.31 47.881,28.265 49.663,28.354Z"/>
        </g>
    </g>
</svg>
